<?xml version="1.0" encoding="UTF-8" standalone="no"?>
<!DOCTYPE svg PUBLIC "-//W3C//DTD SVG 1.1//EN" "http://www.w3.org/Graphics/SVG/1.1/DTD/svg11.dtd">
<svg xmlns="http://www.w3.org/2000/svg" xmlns:xlink="http://www.w3.org/1999/xlink" version="1.1" width="1600pt" height="800pt" viewBox="0 0 1600 800">
<g enable-background="new">
<g id="Layer-1" data-name="Layer 1">
<clipPath id="cp0">
<path transform="matrix(2.7777777,0,0,-2.7777777,0,800)" d="M 0 288 L 576 288 L 576 0 L 0 0 Z "/>
</clipPath>
<g clip-path="url(#cp0)">
<path transform="matrix(2.7777777,0,0,-2.7777777,589.6519,391.02888)" d="M 0 0 C -11.796 0 -20.658 9.424 -20.658 20.971 C -20.658 32.517 -11.359 41.879 .062 41.879 C 7.302 41.879 12.233 39.507 15.416 35.95 L 8.55 28.086 C 6.678 30.02 3.557 31.581 .187 31.581 C -5.305 31.581 -9.612 26.837 -9.612 20.971 C -9.612 15.104 -5.305 10.298 .686 10.298 C 2.372 10.298 4.057 10.672 5.555 11.421 L 5.555 20.846 L 15.853 20.846 L 15.853 4.868 C 12.483 2.06 7.177 0 0 0 " fill="#221f20"/>
<path transform="matrix(2.7777777,0,0,-2.7777777,729.918,332.95085)" d="M 0 0 C 0 5.867 -4.431 10.672 -9.924 10.672 C -15.416 10.672 -19.847 5.929 -19.847 .062 C -19.847 -5.804 -15.416 -10.61 -9.924 -10.61 C -4.431 -10.61 0 -5.867 0 0 M 11.047 0 C 11.047 -11.546 1.623 -20.908 -9.924 -20.908 C -21.47 -20.908 -30.894 -11.484 -30.894 .062 C -30.894 11.609 -21.47 20.971 -9.924 20.971 C 1.623 20.971 11.047 11.546 11.047 0 " fill="#221f20"/>
<path transform="matrix(2.7777777,0,0,-2.7777777,854.25167,332.95085)" d="M 0 0 C 0 5.867 -4.431 10.672 -9.924 10.672 C -15.416 10.672 -19.847 5.929 -19.847 .062 C -19.847 -5.804 -15.416 -10.61 -9.924 -10.61 C -4.431 -10.61 0 -5.867 0 0 M 11.047 0 C 11.047 -11.546 1.623 -20.908 -9.924 -20.908 C -21.47 -20.908 -30.894 -11.484 -30.894 .062 C -30.894 11.609 -21.47 20.971 -9.924 20.971 C 1.623 20.971 11.047 11.546 11.047 0 " fill="#221f20"/>
<path transform="matrix(2.7777777,0,0,-2.7777777,928.2394,304.17167)" d="M 0 0 L 0 -20.659 L 3.807 -20.659 C 10.86 -20.659 15.54 -16.539 15.54 -10.298 C 15.54 -4.119 10.86 0 3.744 0 Z M -10.61 9.674 L 3.932 9.674 C 16.976 9.674 26.587 1.186 26.587 -10.423 C 26.587 -21.907 16.976 -30.333 3.932 -30.333 L -10.61 -30.333 Z " fill="#221f20"/>
<path transform="matrix(2.7777777,0,0,-2.7777777,1175.4724,277.29945)" d="M 0 0 L -12.482 -40.007 L -25.464 -40.007 L -31.455 -12.795 L -37.447 -40.007 L -49.93 -40.007 L -62.412 0 L -51.053 0 L -43.689 -28.148 L -37.384 0 L -24.465 0 L -18.162 -28.148 L -10.797 0 Z " fill="#221f20"/>
<path transform="matrix(2.7777777,0,0,-2.7777777,0,800)" d="M 426.65 188.172 L 436.948 188.172 L 436.948 148.165 L 426.65 148.165 Z " fill="#221f20"/>
<path transform="matrix(2.7777777,0,0,-2.7777777,1233.3833,277.29945)" d="M 0 0 L 10.298 0 L 10.298 -30.333 L 28.46 -30.333 L 28.46 -40.007 L 0 -40.007 Z " fill="#221f20"/>
<path transform="matrix(2.7777777,0,0,-2.7777777,1320.9456,277.29945)" d="M 0 0 L 10.298 0 L 10.298 -30.333 L 28.46 -30.333 L 28.46 -40.007 L 0 -40.007 Z " fill="#221f20"/>
<path transform="matrix(2.7777777,0,0,-2.7777777,585.7278,447.62165)" d="M 0 0 C -1.523 1.322 -3.566 2.324 -6.131 2.324 C -10.539 2.324 -14.025 -1.443 -14.025 -6.091 C -14.025 -10.699 -10.539 -14.466 -5.81 -14.466 C -3.606 -14.466 -1.402 -13.625 0 -12.142 L 3.326 -15.829 C 1.042 -18.313 -2.043 -19.476 -6.171 -19.476 C -13.665 -19.476 -19.355 -13.465 -19.355 -6.091 C -19.355 1.322 -13.464 7.333 -6.171 7.333 C -1.843 7.333 1.162 5.971 3.326 3.807 Z " fill="#0d53a2"/>
<path transform="matrix(2.7777777,0,0,-2.7777777,605.38888,428.80998)" d="M 0 0 L 16.63 0 L 16.63 -4.689 L 5.009 -4.689 L 5.009 -10.379 L 15.027 -10.379 L 15.027 -15.108 L 5.009 -15.108 L 5.009 -20.958 L 16.63 -20.958 L 16.63 -25.687 L 0 -25.687 Z " fill="#0d53a2"/>
<path transform="matrix(2.7777777,0,0,-2.7777777,679.663,451.85194)" d="M 0 0 L 0 -17.392 L -5.009 -17.392 L -5.009 8.295 L .401 8.295 L 12.383 -9.297 L 12.383 8.295 L 17.391 8.295 L 17.391 -17.392 L 11.982 -17.392 Z " fill="#0d53a2"/>
<path transform="matrix(2.7777777,0,0,-2.7777777,771.9122,441.83363)" d="M 0 0 L 0 -20.998 L -5.009 -20.998 L -5.009 0 L -12.623 0 L -12.623 4.689 L 7.654 4.689 L 7.654 0 Z " fill="#0d53a2"/>
<path transform="matrix(2.7777777,0,0,-2.7777777,815.99636,441.05445)" d="M 0 0 L 0 -7.413 L 4.528 -7.413 C 7.173 -7.413 8.897 -5.931 8.897 -3.687 C 8.897 -1.483 7.173 0 4.528 0 Z M -5.009 4.408 L 4.128 4.408 C 10.179 4.408 14.186 1.202 14.186 -3.687 C 14.186 -7.213 12.142 -9.818 8.776 -11.06 L 14.747 -21.279 L 8.936 -21.279 L 3.687 -11.821 L 0 -11.821 L 0 -21.279 L -5.009 -21.279 Z " fill="#0d53a2"/>
<path transform="matrix(2.7777777,0,0,-2.7777777,900.7658,443.5033)" d="M 0 0 L -3.927 -10.178 L 3.927 -10.178 Z M 5.65 -14.627 L -5.61 -14.627 L -7.854 -20.397 L -13.104 -20.397 L -2.765 5.29 L 3.086 5.29 L 13.425 -20.397 L 7.855 -20.397 Z " fill="#0d53a2"/>
<path transform="matrix(2.7777777,0,0,-2.7777777,947.1755,428.80998)" d="M 0 0 L 5.009 0 L 5.009 -20.958 L 17.552 -20.958 L 17.552 -25.687 L 0 -25.687 Z " fill="#0d53a2"/>
<path transform="matrix(2.7777777,0,0,-2.7777777,1110.0131,441.83363)" d="M 0 0 L 0 -20.998 L -5.009 -20.998 L -5.009 0 L -12.623 0 L -12.623 4.689 L 7.654 4.689 L 7.654 0 Z " fill="#0d53a2"/>
<path transform="matrix(2.7777777,0,0,-2.7777777,1140.1836,428.80998)" d="M 0 0 L 16.63 0 L 16.63 -4.689 L 5.009 -4.689 L 5.009 -10.379 L 15.027 -10.379 L 15.027 -15.108 L 5.009 -15.108 L 5.009 -20.958 L 16.63 -20.958 L 16.63 -25.687 L 0 -25.687 Z " fill="#0d53a2"/>
<path transform="matrix(2.7777777,0,0,-2.7777777,1227.7361,451.29499)" d="M 0 0 L 5.53 8.095 L 11.181 8.095 L 2.806 -4.248 L 11.621 -17.592 L 5.37 -17.592 L -.561 -8.696 L -6.652 -17.592 L -12.262 -17.592 L -3.366 -4.488 L -11.782 8.095 L -5.329 8.095 Z " fill="#0d53a2"/>
<path transform="matrix(2.7777777,0,0,-2.7777777,1302.6644,443.5033)" d="M 0 0 L -3.927 -10.178 L 3.927 -10.178 Z M 5.65 -14.627 L -5.61 -14.627 L -7.855 -20.397 L -13.104 -20.397 L -2.765 5.29 L 3.086 5.29 L 13.424 -20.397 L 7.854 -20.397 Z " fill="#0d53a2"/>
<path transform="matrix(2.7777777,0,0,-2.7777777,1389.6586,448.73469)" d="M 0 0 C -1.122 1.603 -3.366 3.005 -6.011 3.005 C -8.415 3.005 -9.818 1.964 -9.818 .441 C -9.818 -4.128 3.687 -2.084 3.687 -11.1 C 3.687 -15.749 -.24 -19.075 -6.131 -19.075 C -11.381 -19.075 -14.467 -16.991 -16.149 -14.466 L -12.583 -11.14 C -10.98 -13.264 -8.736 -14.346 -6.051 -14.346 C -3.246 -14.346 -1.683 -13.224 -1.683 -11.381 C -1.683 -6.412 -15.188 -8.656 -15.188 .28 C -15.188 4.648 -11.3 7.734 -5.81 7.734 C -1.603 7.734 1.723 5.891 3.446 3.406 Z " fill="#0d53a2"/>
<path transform="matrix(2.7777777,0,0,-2.7777777,1035.8086,476.96607)" d="M 0 0 L -5.238 -2.754 L -4.238 3.079 L -8.476 7.21 L -2.619 8.061 L 0 13.368 L 2.619 8.061 L 8.476 7.21 L 4.238 3.079 L 5.238 -2.754 Z " fill="#0d53a2"/>
<path transform="matrix(2.7777777,0,0,-2.7777777,0,800)" d="M 72 85.144 L 167.995 85.144 L 167.995 210.59 L 72 210.59 Z " fill="#221f20"/>
<path transform="matrix(2.7777777,0,0,-2.7777777,218.17859,382.98167)" d="M 0 0 L .091 .007 L 4.364 .007 C 11.726 .007 18.256 3.57 22.272 9.101 L 16.719 12.489 C 13.82 8.871 9.364 6.55 4.296 6.542 L 0 6.563 L 0 53.917 L 32.727 53.917 L 38.124 53.917 L 38.136 12.132 C 38.136 -2.626 26.17 -14.596 11.41 -14.596 L 0 -14.605 Z " fill="#ffffff"/>
<path transform="matrix(2.7777777,0,0,-2.7777777,245.20806,530.4758)" d="M 0 0 L -.014 .969 L -.014 9.719 C -.014 10.016 -.255 10.257 -.553 10.257 L -9.435 10.257 C -9.734 10.257 -9.975 10.016 -9.975 9.719 L -9.975 -.508 C -9.975 -.804 -9.734 -1.047 -9.435 -1.047 L -8.562 -1.047 L -8.185 -1.047 C -7.206 -1.047 -6.427 -.657 -5.818 .012 L -5.715 .113 C -5.583 .22 -5.413 .282 -5.231 .282 C -4.81 .282 -4.469 -.056 -4.469 -.476 C -4.469 -.631 -4.516 -.774 -4.671 -.963 C -5.425 -2.039 -6.574 -2.543 -7.99 -2.543 L -9.435 -2.534 C -9.734 -2.534 -9.975 -2.775 -9.975 -3.073 L -9.975 -5.927 C -9.975 -6.224 -9.734 -6.464 -9.435 -6.464 C -9.435 -6.464 -9.289 -6.611 -5.869 -6.328 C -3.647 -6.146 0 -3.564 0 0 M -3.416 5.292 C -3.416 4.417 -4.132 3.701 -5.011 3.701 C -5.891 3.701 -6.604 4.417 -6.604 5.292 C -6.604 6.175 -5.891 6.889 -5.011 6.889 C -4.132 6.889 -3.416 6.175 -3.416 5.292 " fill="#ffffff"/>
<path transform="matrix(2.7777777,0,0,-2.7777777,281.93748,503.68803)" d="M 0 0 C 0 .324 -.332 .59 -.743 .59 L -9.771 .59 C -10.182 .59 -10.514 .324 -10.514 0 L -10.514 -8.57 C -10.514 -8.895 -10.182 -9.162 -9.771 -9.162 L -.743 -9.162 C -.332 -9.162 0 -8.895 0 -8.57 Z M -3.493 -4.051 C -3.493 -4.926 -4.206 -5.647 -5.083 -5.647 C -5.961 -5.647 -6.672 -4.926 -6.672 -4.051 C -6.672 -3.165 -5.961 -2.452 -5.083 -2.452 C -4.206 -2.452 -3.493 -3.165 -3.493 -4.051 " fill="#ffffff"/>
<path transform="matrix(2.7777777,0,0,-2.7777777,317.68974,503.68803)" d="M 0 0 C 0 .324 -.333 .59 -.744 .59 L -9.769 .59 C -10.181 .59 -10.514 .324 -10.514 0 L -10.514 -8.57 C -10.514 -8.895 -10.181 -9.162 -9.769 -9.162 L -.744 -9.162 C -.333 -9.162 0 -8.895 0 -8.57 Z M -3.492 -4.051 C -3.492 -4.926 -4.204 -5.647 -5.082 -5.647 C -5.961 -5.647 -6.673 -4.926 -6.673 -4.051 C -6.673 -3.165 -5.961 -2.452 -5.082 -2.452 C -4.204 -2.452 -3.492 -3.165 -3.492 -4.051 " fill="#ffffff"/>
<path transform="matrix(2.7777777,0,0,-2.7777777,353.37055,490.7383)" d="M 0 0 C 0 .327 -.266 .594 -.595 .594 L -2.922 .594 C -3.25 .594 -3.517 .327 -3.517 0 L -3.517 -3.57 C -3.56 -3.853 -3.807 -4.072 -4.103 -4.072 L -9.969 -4.072 C -10.296 -4.072 -10.561 -4.338 -10.561 -4.662 L -10.561 -13.231 C -10.561 -13.557 -10.296 -13.823 -9.969 -13.823 L -2.922 -13.823 L -2.765 -13.823 L -.595 -13.823 C -.266 -13.823 0 -13.557 0 -13.231 Z M -3.517 -8.559 C -3.511 -8.609 -3.509 -8.661 -3.509 -8.712 C -3.509 -8.758 -3.511 -8.809 -3.517 -8.86 C -3.593 -9.669 -4.276 -10.309 -5.106 -10.309 C -5.988 -10.309 -6.703 -9.588 -6.703 -8.712 C -6.703 -7.827 -5.988 -7.114 -5.106 -7.114 C -4.275 -7.114 -3.592 -7.745 -3.517 -8.559 " fill="#ffffff"/>
<path transform="matrix(2.7777777,0,0,-2.7777777,399.3658,527.4925)" d="M 0 0 C 0 -.325 -.265 -.592 -.593 -.592 L -13.613 -.592 C -13.943 -.592 -14.207 -.325 -14.207 0 L -14.207 8.57 C -14.207 8.893 -13.943 9.16 -13.613 9.16 L -11.285 9.16 C -10.957 9.16 -10.691 8.893 -10.691 8.57 L -10.691 4.6 L -10.691 3.52 C -10.691 3.189 -10.426 2.922 -10.098 2.922 L -9.436 2.922 C -9.107 2.922 -8.841 3.189 -8.841 3.52 L -8.841 4.6 L -8.841 8.57 C -8.841 8.893 -8.575 9.16 -8.248 9.16 L -5.955 9.16 C -5.626 9.16 -5.362 8.893 -5.362 8.57 L -5.362 4.6 L -5.362 3.52 C -5.362 3.189 -5.095 2.922 -4.767 2.922 L -4.104 2.922 C -3.802 2.922 -3.551 3.151 -3.514 3.443 L -3.514 8.57 C -3.514 8.893 -3.249 9.16 -2.922 9.16 L -.593 9.16 C -.265 9.16 0 8.893 0 8.57 Z " fill="#ffffff"/>
<path transform="matrix(2.7777777,0,0,-2.7777777,415.6822,527.4925)" d="M 0 0 C 0 -.325 -.265 -.592 -.594 -.592 L -2.921 -.592 C -3.251 -.592 -3.516 -.325 -3.516 0 L -3.516 8.57 C -3.516 8.893 -3.251 9.16 -2.921 9.16 L -.594 9.16 C -.265 9.16 0 8.893 0 8.57 Z " fill="#ffffff"/>
<path transform="matrix(2.7777777,0,0,-2.7777777,415.6822,497.86805)" d="M 0 0 C 0 -.33 -.265 -.592 -.594 -.592 L -2.921 -.592 C -3.251 -.592 -3.516 -.33 -3.516 0 L -3.516 2.567 C -3.516 2.894 -3.251 3.16 -2.921 3.16 L -.594 3.16 C -.265 3.16 0 2.894 0 2.567 Z " fill="#ffffff"/>
<path transform="matrix(2.7777777,0,0,-2.7777777,431.8958,527.4925)" d="M 0 0 C 0 -.325 -.266 -.592 -.593 -.592 L -2.885 -.592 C -3.214 -.592 -3.479 -.325 -3.479 0 L -3.479 13.231 C -3.479 13.558 -3.214 13.825 -2.885 13.825 L -.593 13.825 C -.266 13.825 0 13.558 0 13.231 Z " fill="#ffffff"/>
<path transform="matrix(2.7777777,0,0,-2.7777777,448.1119,527.4925)" d="M 0 0 C 0 -.325 -.267 -.592 -.594 -.592 L -2.887 -.592 C -3.213 -.592 -3.48 -.325 -3.48 0 L -3.48 13.231 C -3.48 13.558 -3.213 13.825 -2.887 13.825 L -.594 13.825 C -.267 13.825 0 13.558 0 13.231 Z " fill="#ffffff"/>
<path transform="matrix(2.7777777,0,0,-2.7777777,448.47166,475.6333)" d="M 0 0 L -82.906 0 L -82.906 12.206 L -71.469 12.201 C -53.095 12.201 -38.198 27.099 -38.203 45.534 L -38.203 87.271 L 0 87.271 Z " fill="#0d53a2"/>
<path transform="matrix(2.7777777,0,0,-2.7777777,294.52583,289.77)" d="M 0 0 C 0 4.684 -3.8 8.483 -8.485 8.483 C -13.172 8.483 -16.97 4.684 -16.97 0 C -16.97 -4.688 -13.172 -8.485 -8.485 -8.485 C -3.8 -8.485 0 -4.688 0 0 " fill="#221f20"/>
<path transform="matrix(2.7777777,0,0,-2.7777777,462.5139,581.39358)" d="M 0 0 C -.505 -.512 -1.111 -.762 -1.821 -.762 C -2.534 -.762 -3.141 -.512 -3.646 -.004 C -4.152 .5 -4.405 1.116 -4.405 1.842 C -4.405 2.541 -4.156 3.142 -3.659 3.654 C -3.151 4.171 -2.54 4.433 -1.821 4.433 C -1.111 4.433 -.504 4.171 .003 3.654 C .505 3.138 .755 2.537 .755 1.842 C .755 1.125 .504 .512 0 0 M -1.821 4.972 C -2.643 4.972 -3.362 4.685 -3.971 4.12 C -4.624 3.514 -4.95 2.752 -4.95 1.842 C -4.95 .961 -4.647 .22 -4.045 -.383 C -3.443 -.988 -2.701 -1.288 -1.821 -1.288 C -.969 -1.288 -.239 -.993 .369 -.404 C .994 .203 1.308 .952 1.308 1.842 C 1.308 2.705 1.002 3.442 .389 4.052 C -.221 4.662 -.959 4.972 -1.821 4.972 M -1.435 2.08 C -1.555 1.994 -1.719 1.951 -1.931 1.951 L -2.283 1.951 L -2.283 2.954 L -2.063 2.954 C -1.836 2.954 -1.661 2.928 -1.536 2.885 C -1.349 2.811 -1.257 2.68 -1.257 2.49 C -1.257 2.299 -1.315 2.163 -1.435 2.08 M -.405 .298 C -.41 .333 -.412 .368 -.412 .402 L -.412 .711 C -.412 1.068 -.514 1.326 -.718 1.485 C -.828 1.58 -.991 1.642 -1.209 1.689 C -.973 1.714 -.773 1.791 -.609 1.921 C -.447 2.055 -.366 2.26 -.366 2.553 C -.366 2.933 -.519 3.213 -.828 3.385 C -1.008 3.48 -1.237 3.54 -1.51 3.561 C -1.558 3.561 -1.799 3.566 -2.225 3.566 C -2.654 3.57 -2.977 3.57 -3.192 3.57 L -3.192 .099 L -2.283 .099 L -2.283 1.326 L -2.092 1.326 L -1.892 1.312 C -1.755 1.304 -1.651 1.286 -1.583 1.256 C -1.458 1.211 -1.375 1.125 -1.329 1.003 C -1.301 .931 -1.283 .791 -1.274 .578 C -1.265 .372 -1.247 .212 -1.218 .099 L -.353 .099 L -.383 .199 C -.394 .234 -.401 .267 -.405 .298 " fill="#221f20"/>
</g>
</g>
</g>
</svg>
