<?xml version="1.0" encoding="UTF-8"?>
<svg version="1.1" xmlns="http://www.w3.org/2000/svg" width="283" height="305">
<path d="M0 0 C49.83 0 99.66 0 151 0 C151 65.34 151 130.68 151 198 C101.17 198 51.34 198 0 198 C0 132.66 0 67.32 0 0 Z " fill="#242122" transform="translate(66,0)"/>
<path d="M0 0 C19.8 0 39.6 0 60 0 C60 45.21 60 90.42 60 137 C17.1 137 -25.8 137 -70 137 C-70 130.73 -70 124.46 -70 118 C-68.52789062 117.95101562 -67.05578125 117.90203125 -65.5390625 117.8515625 C-63.56769225 117.77646268 -61.59633891 117.70091806 -59.625 117.625 C-58.65949219 117.5940625 -57.69398437 117.563125 -56.69921875 117.53125 C-41.01999108 116.8998717 -26.8565388 112.74555743 -15 102 C-6.03282057 91.6613696 -0.82085693 80.99121676 -0.68115234 67.20703125 C-0.67110672 66.47434525 -0.6610611 65.74165924 -0.65071106 64.98677063 C-0.62013125 62.59535417 -0.60291506 60.20404829 -0.5859375 57.8125 C-0.56720549 56.14240585 -0.54763059 54.47232096 -0.5272522 52.80224609 C-0.47613954 48.42939743 -0.43640279 44.05651815 -0.39910889 39.68353271 C-0.35186155 34.42448523 -0.29035392 29.16558716 -0.23126221 23.90666199 C-0.1433046 15.93783567 -0.07335836 7.96903428 0 0 Z " fill="#0350A2" transform="translate(146,11)"/>
<path d="M0 0 C19.8 0 39.6 0 60 0 C60.20054405 17.94646391 60.20054405 17.94646391 60.24414062 25.66992188 C60.27388671 30.91456796 60.30885273 36.15877248 60.37719727 41.40307617 C60.43202306 45.63714202 60.46152546 49.87073357 60.47438622 54.10512733 C60.48353639 55.71049771 60.50140141 57.31584579 60.52865028 58.92101097 C60.75303107 72.70251619 58.51148299 84.06304205 49.16015625 94.84765625 C42.76024941 101.22441695 35.50539017 104.2810638 27 107 C25.515 107.495 25.515 107.495 24 108 C22.15389468 108.08239169 20.30494836 108.10743359 18.45703125 108.09765625 C17.00647339 108.09390991 17.00647339 108.09390991 15.52661133 108.09008789 C14.30095459 108.08098389 13.07529785 108.07187988 11.8125 108.0625 C5.9653125 108.0315625 5.9653125 108.0315625 0 108 C0 100.08 0 92.16 0 84 C3.403125 83.87625 3.403125 83.87625 6.875 83.75 C18.69316242 83.05158439 25.66162233 79.29809566 34 71 C30.76819103 67.81558424 30.76819103 67.81558424 26.5 67 C23.50340014 68.19863994 21.50828261 69.98113839 19 72 C13 74 13 74 0 74 C0 49.58 0 25.16 0 0 Z " fill="#FCFCFC" transform="translate(76,11)"/>
<path d="M0 0 C3.63 0 7.26 0 11 0 C11.62777573 1.99913047 12.25207153 3.99935382 12.875 6 C13.22304687 7.11375 13.57109375 8.2275 13.9296875 9.375 C15.06461031 13.21882616 16.02794792 17.11179166 17 21 C18.65 14.07 20.3 7.14 22 0 C26.29 0 30.58 0 35 0 C35.64779076 2.39531933 36.29329009 4.79121748 36.9375 7.1875 C37.21110352 8.19780273 37.21110352 8.19780273 37.49023438 9.22851562 C38.4488358 12.80148458 39.32883282 16.36156738 40 20 C42.64031672 13.46207289 44.38808348 6.85921925 46 0 C49.63 0 53.26 0 57 0 C56.40858852 4.85592172 55.42430833 9.32451741 53.96875 13.9921875 C53.67478333 14.93930099 53.67478333 14.93930099 53.37487793 15.9055481 C52.96390228 17.22559156 52.55033994 18.5448323 52.13427734 19.86328125 C51.4957021 21.88863153 50.86641693 23.91670309 50.23828125 25.9453125 C47.14289794 35.85710206 47.14289794 35.85710206 46 37 C43.81360547 37.07258946 41.62499611 37.08373783 39.4375 37.0625 C37.64119141 37.04896484 37.64119141 37.04896484 35.80859375 37.03515625 C34.88175781 37.02355469 33.95492187 37.01195312 33 37 C32.72285156 35.78441406 32.44570312 34.56882812 32.16015625 33.31640625 C31.79446102 31.73172693 31.42856525 30.14709388 31.0625 28.5625 C30.88009766 27.76005859 30.69769531 26.95761719 30.50976562 26.13085938 C29.90338992 22.25047271 29.90338992 22.25047271 28 19 C26.68 24.94 25.36 30.88 24 37 C19.71 37 15.42 37 11 37 C9.53406976 32.7107967 8.07708334 28.41889061 6.625 24.125 C6.2125 22.92101562 5.8 21.71703125 5.375 20.4765625 C3.08494429 13.68026814 1.22063751 7.06896666 0 0 Z " fill="#231F20" transform="translate(153,231)"/>
<path d="M0 0 C4.59557656 3.95433332 8.30767225 7.64987532 8.9609375 13.94921875 C9.1639984 20.0488559 9.02346713 24.6332082 5.28515625 29.62109375 C0.59629149 34.58509971 -3.48150289 36.60787699 -10.375 36.875 C-17.50539639 36.54272712 -21.04307817 34.58192183 -26.125 29.5 C-29.88268404 24.02451754 -30.87265387 19.06896742 -29.91015625 12.5859375 C-28.46274771 7.08010895 -25.66160027 2.81139758 -20.75 -0.125 C-13.72230151 -3.31940841 -7.00527604 -3.56872553 0 0 Z M-18.3125 13.3125 C-19.7207317 16.74506476 -19.43194838 17.99187541 -18.125 21.5 C-15.93005002 24.92772793 -15.93005002 24.92772793 -12.3125 26.3125 C-8.46615467 26.23236781 -6.82312036 25.76937085 -3.9375 23.1875 C-1.86055535 19.51290562 -1.64353358 17.47495773 -2.3125 13.3125 C-4.75848887 9.93128009 -6.20546559 8.54313217 -10.3125 7.6875 C-14.35135789 8.52892873 -15.80367556 10.08686858 -18.3125 13.3125 Z " fill="#231F20" transform="translate(66.3125,232.6875)"/>
<path d="M0 0 C4.29519213 3.80931067 6.53114944 9.03973351 6.9765625 14.71875 C6.52722621 21.57112837 4.89576809 25.8221663 -0.2734375 30.46875 C-5.14388493 34.51823186 -9.22814564 34.88645531 -15.41796875 34.8046875 C-20.5235688 34.31577915 -24.36666958 32.62346418 -27.83984375 28.8125 C-32.35513654 22.74065329 -33.18292657 17.01154216 -32.2734375 9.53125 C-30.23939595 4.43348612 -26.94965283 0.42604997 -22.2734375 -2.46875 C-14.27030615 -5.70078381 -7.06808744 -4.84347028 0 0 Z M-20.2734375 10.53125 C-21.70005969 13.38449437 -21.58377618 15.36579549 -21.2734375 18.53125 C-19.2995184 21.94764845 -18.08805291 23.25393412 -14.3359375 24.53125 C-10.6477999 24.53125 -9.12835456 23.8310443 -6.2734375 21.53125 C-4.18736824 18.87625276 -4.27464295 17.46374496 -4.3359375 14.03125 C-5.01132162 10.45342615 -5.01132162 10.45342615 -7.4609375 8.09375 C-12.91014987 5.0664098 -16.41532672 5.67288827 -20.2734375 10.53125 Z " fill="#231F20" transform="translate(109.2734375,234.46875)"/>
<path d="M0 0 C23.6 0 23.6 0 28.79296875 4.58203125 C33.31016092 9.50695098 35.52799091 14.04278327 35.30859375 20.8828125 C34.63121997 25.53011108 32.75063311 29.39260051 29.28125 32.578125 C24.96407427 35.76112744 21.53687255 37.1305265 16.11328125 37.09765625 C15.26805908 37.09515869 14.42283691 37.09266113 13.55200195 37.09008789 C12.48296631 37.08098389 11.41393066 37.07187988 10.3125 37.0625 C5.2078125 37.0315625 5.2078125 37.0315625 0 37 C0 24.79 0 12.58 0 0 Z M11 10 C11 15.94 11 21.88 11 28 C18.38550278 27.70356663 18.38550278 27.70356663 21.4375 25.3125 C23.40069674 22.40696882 23.92840401 20.50820355 24 17 C22.76535474 14.14082151 21.70952643 12.513795 19.1875 10.6875 C16.42817162 9.7001734 16.42817162 9.7001734 11 10 Z " fill="#231F20" transform="translate(119,231)"/>
<path d="M0 0 C0.78375 0.70125 1.5675 1.4025 2.375 2.125 C2.375 6.51468456 0.24694899 7.89405739 -2.625 11.125 C-3.6459375 10.63 -3.6459375 10.63 -4.6875 10.125 C-8.28706323 8.89961677 -10.84629483 8.64407389 -14.625 9.125 C-17.5486459 11.6738195 -18.47409176 13.32015606 -19.1875 17.125 C-18.41198584 21.26107554 -17.01177089 22.67499553 -13.625 25.125 C-9.91499282 25.54331404 -9.91499282 25.54331404 -6.625 25.125 C-6.625 22.155 -6.625 19.185 -6.625 16.125 C-3.325 16.125 -0.025 16.125 3.375 16.125 C3.50994246 18.7308889 3.60902299 21.32982111 3.6875 23.9375 C3.72939453 24.67548828 3.77128906 25.41347656 3.81445312 26.17382812 C3.86328125 28.33203125 3.86328125 28.33203125 3.375 32.125 C-1.86802839 36.50736376 -7.7579563 36.52721197 -14.3203125 36.46875 C-19.09244119 35.97235836 -22.16271907 34.39966964 -25.625 31.125 C-30.41948817 24.9782203 -31.42779452 19.74589449 -30.625 12.125 C-28.83966281 6.22828632 -25.69472664 2.50481776 -20.625 -0.875 C-14.03293544 -3.66395039 -6.24381668 -3.83780694 0 0 Z " fill="#231F20" transform="translate(30.625,232.875)"/>
<path d="M0 0 C3.91075925 1.98968453 5.57689098 3.36533646 8 7 C8.57632878 11.83517391 8.61319871 16.45086641 6.8125 21 C3.27264585 24.90604596 0.35518939 26.2132916 -4.875 26.5625 C-9.80027455 26.43734355 -12.2522575 24.88838917 -15.72265625 21.5078125 C-18.62203726 18.08530158 -18.26844969 14.78801079 -18.21875 10.4765625 C-17.85346161 6.34097612 -16.23611868 4.11631863 -13.2265625 1.3984375 C-9.16101052 -1.15501445 -4.62944004 -0.61636539 0 0 Z " fill="#262223" transform="translate(111,30)"/>
<path d="M0 0 C3.3 0 6.6 0 10 0 C10 9.24 10 18.48 10 28 C15.61 28 21.22 28 27 28 C27 30.97 27 33.94 27 37 C18.09 37 9.18 37 0 37 C0 24.79 0 12.58 0 0 Z " fill="#231F20" transform="translate(228,231)"/>
<path d="M0 0 C3.3 0 6.6 0 10 0 C10 9.24 10 18.48 10 28 C15.28 28 20.56 28 26 28 C26 30.97 26 33.94 26 37 C17.42 37 8.84 37 0 37 C0 24.79 0 12.58 0 0 Z " fill="#231F20" transform="translate(257,231)"/>
<path d="M0 0 C3.63 0 7.26 0 11 0 C11 12.21 11 24.42 11 37 C7.37 37 3.74 37 0 37 C0 24.79 0 12.58 0 0 Z " fill="#231F20" transform="translate(212,231)"/>
<path d="M0 0 C2.31 0 4.62 0 7 0 C9.43359375 2.625 9.43359375 2.625 11.4375 6 C12.11683594 7.11375 12.79617187 8.2275 13.49609375 9.375 C13.99238281 10.24125 14.48867188 11.1075 15 12 C15.33 8.04 15.66 4.08 16 0 C17.98 0 19.96 0 22 0 C22 7.92 22 15.84 22 24 C20.02 24 18.04 24 16 24 C14.04072278 21.98679772 12.6472999 20.29898352 11.125 18 C10.7228125 17.42765625 10.320625 16.8553125 9.90625 16.265625 C8.9195939 14.85611629 7.95731894 13.42959628 7 12 C6.67 15.96 6.34 19.92 6 24 C4.02 24 2.04 24 0 24 C0 16.08 0 8.16 0 0 Z " fill="#0351A3" transform="translate(43,281)"/>
<path d="M0 0 C5.28 0 10.56 0 16 0 C16.10822792 3.06345144 16.18741479 6.1230601 16.25 9.1875 C16.30027344 10.48397461 16.30027344 10.48397461 16.3515625 11.80664062 C16.41682915 16.06528943 16.41003199 18.34798191 14.09375 22.03125 C10.62892541 25.28921939 8.46580225 26.10009259 3.75 26.125 C2.5125 26.08375 1.275 26.0425 0 26 C0 24.02 0 22.04 0 20 C1.134375 19.71125 2.26875 19.4225 3.4375 19.125 C4.613125 18.75375 5.78875 18.3825 7 18 C7.33 17.34 7.66 16.68 8 16 C7.34 16.33 6.68 16.66 6 17 C4.02 17 2.04 17 0 17 C0 11.39 0 5.78 0 0 Z " fill="#F8F8F8" transform="translate(76,163)"/>
<path d="M0 0 C13.33195021 -0.49377593 13.33195021 -0.49377593 16.42578125 1.79296875 C18.69220209 4.97045703 18.48419905 7.1955789 18 11 C16.5 12.9375 16.5 12.9375 15 14 C15.433125 15.0828125 15.433125 15.0828125 15.875 16.1875 C16.91666667 18.79166667 17.95833333 21.39583333 19 24 C16.69 24 14.38 24 12 24 C8 17.25 8 17.25 8 15 C7.01 15 6.02 15 5 15 C5 17.97 5 20.94 5 24 C3.35 24 1.7 24 0 24 C0 16.08 0 8.16 0 0 Z M5 5 C5 6.65 5 8.3 5 10 C6.98 10 8.96 10 11 10 C11.59070014 8.05396726 11.59070014 8.05396726 12 6 C10.87465895 4.64381501 10.87465895 4.64381501 7.9375 4.9375 C6.968125 4.958125 5.99875 4.97875 5 5 Z " fill="#0351A3" transform="translate(88,281)"/>
<path d="M0 0 C2.31 0 4.62 0 7 0 C8.50884213 3.43368594 10.00553401 6.87253549 11.5 10.3125 C11.92925781 11.28896484 12.35851562 12.26542969 12.80078125 13.27148438 C13.40986328 14.67817383 13.40986328 14.67817383 14.03125 16.11328125 C14.40830078 16.97735596 14.78535156 17.84143066 15.17382812 18.73168945 C16 21 16 21 16 24 C14.02 24 12.04 24 10 24 C9.77570313 23.35546875 9.55140625 22.7109375 9.3203125 22.046875 C8.17110544 19.75611148 8.17110544 19.75611148 5.6171875 19.390625 C4.25980469 19.32101562 4.25980469 19.32101562 2.875 19.25 C1.96492188 19.19328125 1.05484375 19.1365625 0.1171875 19.078125 C-0.93082031 19.03945313 -0.93082031 19.03945313 -2 19 C-2.33 20.65 -2.66 22.3 -3 24 C-4.98 24 -6.96 24 -9 24 C-6.80148049 15.63019764 -3.50929804 7.88172441 0 0 Z M3 7 C2.34 8.98 1.68 10.96 1 13 C2.65 13 4.3 13 6 13 C5.34 11.02 4.68 9.04 4 7 C3.67 7 3.34 7 3 7 Z " fill="#0351A3" transform="translate(117,281)"/>
<path d="M0 0 C1.134375 0.020625 2.26875 0.04125 3.4375 0.0625 C4.9431651 3.68517294 6.44106546 7.31100549 7.9375 10.9375 C8.36675781 11.97003906 8.79601562 13.00257813 9.23828125 14.06640625 C9.84736328 15.54560547 9.84736328 15.54560547 10.46875 17.0546875 C10.84580078 17.96589355 11.22285156 18.87709961 11.61132812 19.81591797 C12.4375 22.0625 12.4375 22.0625 12.4375 24.0625 C10.4575 24.0625 8.4775 24.0625 6.4375 24.0625 C6.21320313 23.41796875 5.98890625 22.7734375 5.7578125 22.109375 C4.60860544 19.81861148 4.60860544 19.81861148 2.0546875 19.453125 C0.69730469 19.38351562 0.69730469 19.38351562 -0.6875 19.3125 C-1.59757813 19.25578125 -2.50765625 19.1990625 -3.4453125 19.140625 C-4.49332031 19.10195313 -4.49332031 19.10195313 -5.5625 19.0625 C-5.8925 20.7125 -6.2225 22.3625 -6.5625 24.0625 C-8.5425 24.0625 -10.5225 24.0625 -12.5625 24.0625 C-11.82696805 19.03636497 -9.91800611 14.50715402 -8.0625 9.8125 C-7.58103516 8.57113281 -7.58103516 8.57113281 -7.08984375 7.3046875 C-4.25710548 0.07468606 -4.25710548 0.07468606 0 0 Z M-0.5625 7.0625 C-1.2225 9.0425 -1.8825 11.0225 -2.5625 13.0625 C-1.2425 13.0625 0.0775 13.0625 1.4375 13.0625 C1.1075 11.0825 0.7775 9.1025 0.4375 7.0625 C0.1075 7.0625 -0.2225 7.0625 -0.5625 7.0625 Z " fill="#0351A3" transform="translate(251.5625,280.9375)"/>
<path d="M0 0 C1.67542976 0.28604898 3.34385343 0.61781233 5 1 C5.02887814 4.47914941 5.04675687 7.95826831 5.0625 11.4375 C5.07087891 12.43072266 5.07925781 13.42394531 5.08789062 14.44726562 C5.09272461 15.86362305 5.09272461 15.86362305 5.09765625 17.30859375 C5.10551147 18.62041626 5.10551147 18.62041626 5.11352539 19.95874023 C5 22 5 22 4 23 C1.30345146 23.07319621 -1.36691458 23.09242537 -4.0625 23.0625 C-4.82111328 23.05798828 -5.57972656 23.05347656 -6.36132812 23.04882812 C-8.24091871 23.0370068 -10.12046899 23.01907078 -12 23 C-12.02685095 20.52076199 -12.04676547 18.0418116 -12.0625 15.5625 C-12.07506836 14.50192383 -12.07506836 14.50192383 -12.08789062 13.41992188 C-12.09653588 11.61306441 -12.05220011 9.80612397 -12 8 C-11 7 -11 7 -8.71484375 6.90234375 C-7.34005859 6.91974609 -7.34005859 6.91974609 -5.9375 6.9375 C-5.01839844 6.94652344 -4.09929687 6.95554688 -3.15234375 6.96484375 C-2.44207031 6.97644531 -1.73179687 6.98804688 -1 7 C-1.020625 6.030625 -1.04125 5.06125 -1.0625 4.0625 C-1 1 -1 1 0 0 Z " fill="#EAEAEA" transform="translate(148,155)"/>
<path d="M0 0 C3.25 -0.3125 3.25 -0.3125 7 0 C9.4375 2.5 9.4375 2.5 11 5 C11.53625 4.175 12.0725 3.35 12.625 2.5 C15 0 15 0 18.25 -0.3125 C19.61125 -0.1578125 19.61125 -0.1578125 21 0 C19.43358249 4.30764815 17.31663844 8.06171464 15 12 C15.5053125 12.69867188 16.010625 13.39734375 16.53125 14.1171875 C17.1809375 15.02726562 17.830625 15.93734375 18.5 16.875 C19.1496875 17.77992188 19.799375 18.68484375 20.46875 19.6171875 C22 22 22 22 22 24 C18.75 24.375 18.75 24.375 15 24 C12.5625 21 12.5625 21 11 18 C10.195625 18.804375 9.39125 19.60875 8.5625 20.4375 C5 24 5 24 1.9375 24.0625 C0.968125 24.041875 -0.00125 24.02125 -1 24 C0.64178265 19.22390502 3.26546702 15.20617096 6 11 C5.566875 10.37351562 5.13375 9.74703125 4.6875 9.1015625 C4.130625 8.28429687 3.57375 7.46703125 3 6.625 C2.443125 5.81289063 1.88625 5.00078125 1.3125 4.1640625 C0 2 0 2 0 0 Z " fill="#0351A3" transform="translate(216,281)"/>
<path d="M0 0 C3 1.5 3 1.5 5 3 C3.25 6.875 3.25 6.875 1 8 C-1.01222047 7.3711811 -3.01276732 6.70381157 -5 6 C-5.66 6 -6.32 6 -7 6 C-5.65853856 8.68292289 -4.30410004 8.87704062 -1.5625 10 C1.22906973 11.14709767 2.84618666 11.84618666 5 14 C5.41652031 17.74868276 5.4979164 20.11733001 3.625 23.4375 C-0.44891852 25.8624515 -4.38810195 25.90151803 -9 25 C-11.27979455 23.5391117 -12.34659752 22.20453665 -14 20 C-13.01 19.01 -12.02 18.02 -11 17 C-10.2575 17.33 -9.515 17.66 -8.75 18 C-5.86116688 19.22782871 -5.86116688 19.22782871 -2 19 C-1.67 18.01 -1.34 17.02 -1 16 C-1.61488281 15.81824219 -2.22976563 15.63648438 -2.86328125 15.44921875 C-3.67152344 15.19785156 -4.47976563 14.94648438 -5.3125 14.6875 C-6.11300781 14.44386719 -6.91351563 14.20023437 -7.73828125 13.94921875 C-10.15992581 12.93288088 -11.43306569 12.10111647 -13 10 C-12.93466459 6.34121692 -12.76975083 3.95449102 -10.4375 1.0625 C-6.95952601 -0.45353995 -3.69735928 -0.57107727 0 0 Z " fill="#0351A3" transform="translate(278,280)"/>
<path d="M0 0 C1.67542976 0.28604898 3.34385343 0.61781233 5 1 C5 3.97 5 6.94 5 10 C5.66 10 6.32 10 7 10 C7 7.03 7 4.06 7 1 C8.98 1 10.96 1 13 1 C13 3.97 13 6.94 13 10 C13.99 10 14.98 10 16 10 C16 7.03 16 4.06 16 1 C17.98 1 19.96 1 22 1 C22.02685412 3.31243792 22.04632841 5.6249627 22.0625 7.9375 C22.07410156 9.22527344 22.08570313 10.51304687 22.09765625 11.83984375 C22 15 22 15 21 16 C19.45044441 16.09899523 17.89646327 16.13079524 16.34375 16.1328125 C14.93416016 16.13474609 14.93416016 16.13474609 13.49609375 16.13671875 C12.50738281 16.13285156 11.51867187 16.12898438 10.5 16.125 C9.51128906 16.12886719 8.52257812 16.13273437 7.50390625 16.13671875 C6.56417969 16.13542969 5.62445313 16.13414062 4.65625 16.1328125 C3.78806641 16.13168457 2.91988281 16.13055664 2.02539062 16.12939453 C0 16 0 16 -1 15 C-1.09909302 12.66839945 -1.12970504 10.33370058 -1.125 8 C-1.12757813 6.72125 -1.13015625 5.4425 -1.1328125 4.125 C-1 1 -1 1 0 0 Z " fill="#F4F4F4" transform="translate(157,162)"/>
<path d="M0 0 C5.28 0 10.56 0 16 0 C16 1.65 16 3.3 16 5 C12.37 5 8.74 5 5 5 C5 6.32 5 7.64 5 9 C7.97 9 10.94 9 14 9 C14 10.65 14 12.3 14 14 C11.03 14 8.06 14 5 14 C5 15.32 5 16.64 5 18 C8.63 18 12.26 18 16 18 C16 19.98 16 21.96 16 24 C10.72 24 5.44 24 0 24 C0 16.08 0 8.16 0 0 Z " fill="#0351A3" transform="translate(198,281)"/>
<path d="M0 0 C5.28 0 10.56 0 16 0 C16 1.65 16 3.3 16 5 C12.37 5 8.74 5 5 5 C5 6.32 5 7.64 5 9 C7.97 9 10.94 9 14 9 C14 10.65 14 12.3 14 14 C11.03 14 8.06 14 5 14 C5 15.32 5 16.64 5 18 C8.63 18 12.26 18 16 18 C16 19.98 16 21.96 16 24 C10.72 24 5.44 24 0 24 C0 16.08 0 8.16 0 0 Z " fill="#0351A3" transform="translate(24,281)"/>
<path d="M0 0 C2.27734375 1.01953125 2.27734375 1.01953125 4 2 C3.49396008 4.16874252 3.00016187 5.99967627 2 8 C1.01 7.67 0.02 7.34 -1 7 C-4.54187831 6.66661404 -4.54187831 6.66661404 -8 7 C-10.31361802 10.47042703 -10.51020728 11.91834173 -10 16 C-8.59869315 18.13575439 -8.59869315 18.13575439 -6 19 C-3.98843934 18.91004882 -3.98843934 18.91004882 -1.875 18.5625 C-0.59625 18.376875 0.6825 18.19125 2 18 C2.66 18.66 3.32 19.32 4 20 C3.75 22.0625 3.75 22.0625 3 24 C-0.71013678 25.85506839 -4.95092823 25.45334699 -9 25 C-13.13316732 22.93341634 -15.28257207 21.25082841 -17 17 C-17.5822518 12.77300318 -17.44569111 9.07904163 -15.8125 5.125 C-11.35153838 -0.10509293 -6.60755257 -0.91016377 0 0 Z " fill="#0351A3" transform="translate(17,280)"/>
<path d="M0 0 C0.70253906 0.00386719 1.40507813 0.00773438 2.12890625 0.01171875 C2.83144531 0.00785156 3.53398438 0.00398437 4.2578125 0 C9.50229247 0.01010497 9.50229247 0.01010497 10.62890625 1.13671875 C10.72799927 3.4683193 10.75861129 5.80301817 10.75390625 8.13671875 C10.75777344 10.05484375 10.75777344 10.05484375 10.76171875 12.01171875 C10.62890625 15.13671875 10.62890625 15.13671875 9.62890625 16.13671875 C6.93235771 16.20991496 4.26199167 16.22914412 1.56640625 16.19921875 C0.80779297 16.19470703 0.04917969 16.19019531 -0.73242188 16.18554688 C-2.61201246 16.17372555 -4.49156274 16.15578953 -6.37109375 16.13671875 C-6.3979447 13.65748074 -6.41785922 11.17853035 -6.43359375 8.69921875 C-6.44616211 7.63864258 -6.44616211 7.63864258 -6.45898438 6.55664062 C-6.46762963 4.74978316 -6.42329386 2.94284272 -6.37109375 1.13671875 C-4.61549433 -0.61888067 -2.33526933 0.00449956 0 0 Z " fill="#E4E4E4" transform="translate(122.37109375,161.86328125)"/>
<path d="M0 0 C1.26972656 0.00257813 2.53945312 0.00515625 3.84765625 0.0078125 C5.11480469 0.00523437 6.38195312 0.00265625 7.6875 0 C10.91015625 0.1328125 10.91015625 0.1328125 12.91015625 1.1328125 C12.93701037 3.44525042 12.95648466 5.7577752 12.97265625 8.0703125 C12.98425781 9.35808594 12.99585937 10.64585937 13.0078125 11.97265625 C12.91015625 15.1328125 12.91015625 15.1328125 11.91015625 16.1328125 C9.21360771 16.20600871 6.54324167 16.22523787 3.84765625 16.1953125 C3.08904297 16.19080078 2.33042969 16.18628906 1.54882812 16.18164062 C-0.33076246 16.1698193 -2.21031274 16.15188328 -4.08984375 16.1328125 C-4.1166947 13.65357449 -4.13660922 11.1746241 -4.15234375 8.6953125 C-4.16491211 7.63473633 -4.16491211 7.63473633 -4.17773438 6.55273438 C-4.18637963 4.74587691 -4.14204386 2.93893647 -4.08984375 1.1328125 C-3.08984375 0.1328125 -3.08984375 0.1328125 0 0 Z " fill="#E4E4E4" transform="translate(100.08984375,161.8671875)"/>
<path d="M0 0 C1.98 0 3.96 0 6 0 C6 5.94 6 11.88 6 18 C9.63 18 13.26 18 17 18 C17 19.98 17 21.96 17 24 C11.39 24 5.78 24 0 24 C0 16.08 0 8.16 0 0 Z " fill="#0351A3" transform="translate(135,281)"/>
<path d="M0 0 C6.27 0 12.54 0 19 0 C19 1.65 19 3.3 19 5 C16.69 5 14.38 5 12 5 C12 11.27 12 17.54 12 24 C10.02 24 8.04 24 6 24 C6 17.73 6 11.46 6 5 C4.02 5 2.04 5 0 5 C0 3.35 0 1.7 0 0 Z " fill="#0351A3" transform="translate(177,281)"/>
<path d="M0 0 C6.27 0 12.54 0 19 0 C19 1.65 19 3.3 19 5 C16.69 5 14.38 5 12 5 C12 11.27 12 17.54 12 24 C10.02 24 8.04 24 6 24 C6 17.73 6 11.46 6 5 C4.02 5 2.04 5 0 5 C0 3.35 0 1.7 0 0 Z " fill="#0351A3" transform="translate(67,281)"/>
<path d="M0 0 C1.65 0 3.3 0 5 0 C5 7.59 5 15.18 5 23 C3.35 23 1.7 23 0 23 C-1.62200515 21.37799485 -1.1299075 19.57976969 -1.1328125 17.34375 C-1.13410156 16.40402344 -1.13539063 15.46429688 -1.13671875 14.49609375 C-1.13285156 13.50738281 -1.12898437 12.51867187 -1.125 11.5 C-1.12886719 10.51128906 -1.13273438 9.52257812 -1.13671875 8.50390625 C-1.13542969 7.56417969 -1.13414062 6.62445313 -1.1328125 5.65625 C-1.13168457 4.78806641 -1.13055664 3.91988281 -1.12939453 3.02539062 C-1 1 -1 1 0 0 Z " fill="#EBEAEB" transform="translate(201,155)"/>
<path d="M0 0 C1.65 0.33 3.3 0.66 5 1 C5 8.26 5 15.52 5 23 C3.35 23 1.7 23 0 23 C-1.62200515 21.37799485 -1.1299075 19.57976969 -1.1328125 17.34375 C-1.13410156 16.40402344 -1.13539063 15.46429688 -1.13671875 14.49609375 C-1.13285156 13.50738281 -1.12898437 12.51867187 -1.125 11.5 C-1.12886719 10.51128906 -1.13273438 9.52257812 -1.13671875 8.50390625 C-1.13542969 7.56417969 -1.13414062 6.62445313 -1.1328125 5.65625 C-1.13168457 4.78806641 -1.13055664 3.91988281 -1.12939453 3.02539062 C-1 1 -1 1 0 0 Z " fill="#F4F4F4" transform="translate(192,155)"/>
<path d="M0 0 C1.5 1.375 1.5 1.375 3 3 C3 3.66 3 4.32 3 5 C4.65 5.33 6.3 5.66 8 6 C7.67 6.53625 7.34 7.0725 7 7.625 C5.77300796 10.5391061 5.85766714 12.86867708 6 16 C4.01432292 15.70703125 2.02864583 15.4140625 0.04296875 15.12109375 C-2.2025342 14.86095201 -2.2025342 14.86095201 -5 16 C-4.9071875 14.63875 -4.9071875 14.63875 -4.8125 13.25 C-5.01672076 9.71017358 -5.64551835 8.55068845 -8 6 C-7 5 -7 5 -4.4375 4.9375 C-3.2309375 4.9684375 -3.2309375 4.9684375 -2 5 C-1.34 3.35 -0.68 1.7 0 0 Z " fill="#0351A3" transform="translate(164,284)"/>
<path d="M0 0 C1.65 0.33 3.3 0.66 5 1 C5 5.95 5 10.9 5 16 C3.02 16 1.04 16 -1 16 C-1.02685095 13.52076199 -1.04676547 11.0418116 -1.0625 8.5625 C-1.07506836 7.50192383 -1.07506836 7.50192383 -1.08789062 6.41992188 C-1.09653588 4.61306441 -1.05220011 2.80612397 -1 1 C-0.67 0.67 -0.34 0.34 0 0 Z " fill="#EFEFEF" transform="translate(183,162)"/>
<path d="M0 0 C1.875 1.6875 1.875 1.6875 3 4 C2.75925978 7.37036311 2.41201979 8.58798021 0 11 C-3.625 10.625 -3.625 10.625 -7 10 C-8.33359073 3.57451737 -8.33359073 3.57451737 -6.875 1.0625 C-4.33639987 -0.37604008 -2.87213496 -0.50262362 0 0 Z M-6 4 C-5 7 -5 7 -5 7 Z M0 4 C1 7 1 7 1 7 Z M-3 7 C-2 9 -2 9 -2 9 Z " fill="#231F20" transform="translate(214,199)"/>
<path d="M0 0 C1.67542976 0.28604898 3.34385343 0.61781233 5 1 C5 2.65 5 4.3 5 6 C3.02 6 1.04 6 -1 6 C-1.042721 4.33388095 -1.04063832 2.66617115 -1 1 C-0.67 0.67 -0.34 0.34 0 0 Z " fill="#EEEEEE" transform="translate(183,155)"/>
<path d="M0 0 C-0.33 0.99 -0.66 1.98 -1 3 C-3.31 3.33 -5.62 3.66 -8 4 C-8 3.01 -8 2.02 -8 1 C-2.25 0 -2.25 0 0 0 Z " fill="#605D5E" transform="translate(84,179)"/>
<path d="M0 0 C1.32 0.33 2.64 0.66 4 1 C3.67 2.32 3.34 3.64 3 5 C2.01 4.67 1.02 4.34 0 4 C0 2.68 0 1.36 0 0 Z " fill="#393637" transform="translate(82,168)"/>
</svg>
